HIERARCHY
ROOT root
{
	OFFSET	0	13.1	24.9
	CHANNELS 6  Xposition Yposition Zposition Xrotation Yrotation Zrotation
	JOINT spine_1
	{
		OFFSET	0	9.99999	0
		CHANNELS 3  Xrotation Yrotation Zrotation
		JOINT spine_2
		{
			OFFSET	0	112	-10
			CHANNELS 3  Xrotation Yrotation Zrotation
			JOINT spine_3
			{
				OFFSET	0	206.5	19.3
				CHANNELS 3  Xrotation Yrotation Zrotation
				JOINT spine_4
				{
					OFFSET	0	110.4	14.6
					CHANNELS 3  Xrotation Yrotation Zrotation
					JOINT neck_1
					{
						OFFSET	0	71.8	-50.3
						CHANNELS 3  Xrotation Yrotation Zrotation
						JOINT neck_2
						{
							OFFSET	0	86.2	-25.8
							CHANNELS 3  Xrotation Yrotation Zrotation
							JOINT head_ee
							{
								OFFSET	0	179.8	-8.7
								CHANNELS 3  Xrotation Yrotation Zrotation
								End Site
								{
									OFFSET	1	0	0
								}
							}
						}
					}
					JOINT left_clavicle
					{
						OFFSET	-43.2	22.4	-70.8
						CHANNELS 3  Xrotation Yrotation Zrotation
						JOINT left_shoulder
						{
							OFFSET	-93.9	-5.79999	48.7
							CHANNELS 3  Xrotation Yrotation Zrotation
							JOINT left_elbow
							{
								OFFSET	-291.4	-30.8	15.2
								CHANNELS 3  Xrotation Yrotation Zrotation
								JOINT left_lowarm_twist
								{
									OFFSET	-110.7	-3.89999	13.6
									CHANNELS 3  Xrotation Yrotation Zrotation
									JOINT left_hand
									{
										OFFSET	-110.7	-3.89999	13.6
										CHANNELS 3  Xrotation Yrotation Zrotation
										JOINT left_ee
										{
											OFFSET	-80.8	-5.10001	12.1
											CHANNELS 3  Xrotation Yrotation Zrotation
											End Site
											{
												OFFSET	1	0	0
											}
										}
									}
								}
							}
						}
					}
					JOINT right_clavicle
					{
						OFFSET	43.2	22.4	-70.8
						CHANNELS 3  Xrotation Yrotation Zrotation
						JOINT right_shoulder
						{
							OFFSET	93.9	-5.79999	48.7
							CHANNELS 3  Xrotation Yrotation Zrotation
							JOINT right_elbow
							{
								OFFSET	291.4	-30.8	15.2
								CHANNELS 3  Xrotation Yrotation Zrotation
								JOINT right_lowarm_twist
								{
									OFFSET	110.7	-3.89999	13.6
									CHANNELS 3  Xrotation Yrotation Zrotation
									JOINT right_hand
									{
										OFFSET	110.7	-3.89999	13.6
										CHANNELS 3  Xrotation Yrotation Zrotation
										JOINT right_ee
										{
											OFFSET	80.8	-5.10001	12.1
											CHANNELS 3  Xrotation Yrotation Zrotation
											End Site
											{
												OFFSET	1	0	0
											}
										}
									}
								}
							}
						}
					}
				}
			}
		}
	}
	JOINT left_hip
	{
		OFFSET	-82.8	-127.5	0.300001
		CHANNELS 3  Xrotation Yrotation Zrotation
		JOINT left_knee
		{
			OFFSET	-28.2	-396.7	2.2
			CHANNELS 3  Xrotation Yrotation Zrotation
			JOINT left_ankle
			{
				OFFSET	-11.7	-411.3	35.4
				CHANNELS 3  Xrotation Yrotation Zrotation
				JOINT left_toes
				{
					OFFSET	0	-60	-88.6
					CHANNELS 3  Xrotation Yrotation Zrotation
					JOINT left_foot_ee
					{
						OFFSET	-22.5	-16.5	-42.2
						CHANNELS 3  Xrotation Yrotation Zrotation
						End Site
						{
							OFFSET	1	0	0
						}
					}
				}
			}
		}
	}
	JOINT right_hip
	{
		OFFSET	82.8	-127.5	0.300001
		CHANNELS 3  Xrotation Yrotation Zrotation
		JOINT right_knee
		{
			OFFSET	28.2	-396.7	2.2
			CHANNELS 3  Xrotation Yrotation Zrotation
			JOINT right_ankle
			{
				OFFSET	11.7	-411.3	35.4
				CHANNELS 3  Xrotation Yrotation Zrotation
				JOINT right_toes
				{
					OFFSET	0	-60	-88.6
					CHANNELS 3  Xrotation Yrotation Zrotation
					JOINT right_foot_ee
					{
						OFFSET	22.5	-16.5	-42.2
						CHANNELS 3  Xrotation Yrotation Zrotation
						End Site
						{
							OFFSET	1	0	0
						}
					}
				}
			}
		}
	}
}
MOTION
Frames: 5
Frame Time: 0.02
73.3672 702.147 -1519.13 164.291 -80.6071 162.247 -5.16004 -0.244507 -0.679395 -5.15981 -0.200781 -0.693576 -5.15679 0.0144171 -0.721908 -5.15751 -0.0997727 -0.715125 8.53864 -1.27796 5.75019 8.76825 -7.33197 6.87391 -0.0 0.0 -0.0 11.2091 -23.5844 21.8312 84.4347 76.935 -10.3889 0.278759 -7.86238 0.0191564 67.9026 -2.52568 -7.78651 -5.24425 3.38258 -35.6026 -0.0 0.0 -0.0 11.582 18.9794 -23.0465 -29.1314 38.2599 -46.2134 0.365443 10.2613 -0.0328121 13.1451 -0.274586 1.65305 -0.0687282 9.76221 4.61571 0.0 0.0 0.0 -3.01266 53.5093 10.0302 5.48069 -0.264173 -0.799017 32.3604 -31.9269 -5.22345 5.70266 -0.0 -0.0 -0.0 0.0 -0.0 13.3487 -18.2242 19.1372 -11.7815 -0.303035 -1.77948 -16.5257 -20.8163 -2.53626 30.0771 -0.0 -0.0 0.0 0.0 0.0 
65.2494 705.396 -1517.66 168.594 -81.76 166.672 -5.16097 -0.157368 -0.655054 -5.16074 -0.115368 -0.66374 -5.15891 0.0871342 -0.668033 -5.15953 -0.0194602 -0.67341 9.17199 -2.36342 5.36147 9.44064 -8.78318 6.45959 -0.0 0.0 -0.0 11.1768 -25.8578 21.5262 85.7425 76.3608 -10.6465 0.269138 -7.59423 0.0178625 67.1651 -2.45164 -7.72762 -5.38324 4.10075 -36.2713 -0.0 0.0 -0.0 11.9898 18.2083 -24.0262 -28.9764 38.3693 -44.848 0.345457 9.71111 -0.0293463 12.7767 -0.272089 1.60606 0.0833491 10.26 3.79913 0.0 0.0 0.0 0.209011 54.4213 8.55519 3.53695 -0.161728 -0.518515 31.6292 -32.4809 -5.17291 5.57969 -0.0 -0.0 -0.0 0.0 -0.0 14.3284 -18.1134 18.1017 -9.96436 -0.28028 -1.5016 -20.6598 -25.4016 -3.2434 32.2803 -0.0 -0.0 0.0 0.0 0.0 
75.4538 698.033 -1516.11 161.705 -81.8305 160.045 -5.19728 -0.151132 -0.620594 -5.19707 -0.111337 -0.628953 -5.1954 0.0810462 -0.633568 -5.19596 -0.0200291 -0.638417 9.28833 -3.93098 5.68072 9.69217 -11.6541 6.86106 -0.0 0.0 -0.0 10.3878 -24.9578 19.8419 86.4023 77.6511 -11.0563 0.244989 -6.91977 0.014812 64.8088 -2.22024 -7.53318 -5.39964 3.65936 -36.7057 -0.0 0.0 -0.0 11.6567 17.9165 -23.2809 -28.3998 38.861 -46.1362 0.345764 9.71958 -0.0293981 13.4542 -0.276448 1.69248 0.152331 11.5228 3.87237 0.0 0.0 0.0 -1.00531 53.0768 7.83984 3.46623 -0.158181 -0.508245 32.3967 -31.9697 -5.23084 6.14732 -0.0 -0.0 -0.0 0.0 -0.0 14.0659 -20.6125 19.0303 -11.683 -0.302028 -1.76441 -15.6054 -21.461 -2.39936 32.6659 -0.0 -0.0 0.0 0.0 0.0 
71.5835 700.686 -1517.19 163.847 -81.9064 162.205 -5.27844 -0.200261 -0.622111 -5.27824 -0.160269 -0.633593 -5.27598 0.0366314 -0.652521 -5.27657 -0.0668796 -0.650118 10.1791 -5.67837 6.85397 10.8905 -15.5557 8.45627 -0.0 0.0 -0.0 10.7873 -25.7131 20.6622 87.4655 76.6158 -11.6746 0.234349 -6.62196 0.0135575 63.9766 -2.14046 -7.46228 -5.58943 4.42369 -37.7756 -0.0 0.0 -0.0 11.8274 19.4002 -23.5797 -27.7477 37.9677 -45.2606 0.349166 9.81337 -0.0299753 14.4524 -0.281008 1.8199 0.312733 10.3057 2.26843 0.0 0.0 0.0 0.282738 51.5392 7.04349 2.52397 -0.112135 -0.371024 27.8811 -31.3248 -4.61433 7.20196 -0.0 -0.0 -0.0 0.0 -0.0 14.2342 -19.2651 17.9201 -9.94033 -0.27992 -1.49793 -22.0807 -28.0605 -3.52069 30.1042 -0.0 -0.0 0.0 0.0 0.0 
74.9787 699.115 -1521.16 168.304 -82.9784 167.077 -4.97323 -0.27203 -0.893141 -4.97281 -0.214648 -0.908639 -4.96846 0.0620318 -0.931584 -4.96966 -0.0858665 -0.92969 9.30503 -7.57444 7.68058 10.3231 -19.4521 9.38741 -0.0 0.0 -0.0 10.6568 -25.1569 20.4268 89.2673 77.2969 -13.1355 0.236995 -6.69605 0.0138644 61.5358 -1.91255 -7.24777 -5.94682 6.40031 -39.3944 -0.0 0.0 -0.0 11.4706 20.4629 -22.6901 -29.6298 38.9236 -44.4431 0.376369 10.5613 -0.0347866 15.8688 -0.283669 2.00078 0.334434 9.67195 1.85109 0.0 0.0 0.0 2.04014 55.7367 6.04722 0.578223 -0.0242418 -0.0854201 27.4917 -31.9388 -4.60038 6.914 -0.0 -0.0 -0.0 0.0 -0.0 16.7328 -21.4777 18.4025 -11.4043 -0.299037 -1.72174 -20.2017 -28.857 -3.23538 29.7467 -0.0 -0.0 0.0 0.0 0.0 
